{
  "accessors": [
    {
      "bufferView": 2,
      "componentType": 5126,
      "count": 54505,
      "max": [
        1.1288862228393555,
        1.1294877529144287,
        0.22146186232566833
      ],
      "min": [
        -1.1299865245819092,
        -1.1297458410263062,
        -0.23493906855583191
      ],
      "type": "VEC3"
    },
    {
      "bufferView": 2,
      "byteOffset": 654060,
      "componentType": 5126,
      "count": 54505,
      "max": [
        0.99997222423553467,
        0.9999924898147583,
        0.99997711181640625
      ],
      "min": [
        -0.99997437000274658,
        -0.99993956089019775,
        -0.9999772310256958
      ],
      "type": "VEC3"
    },
    {
      "bufferView": 1,
      "componentType": 5126,
      "count": 54505,
      "max": [
        0,
        0
      ],
      "min": [
        0,
        0
      ],
      "type": "VEC2"
    },
    {
      "bufferView": 0,
      "componentType": 5125,
      "count": 245328,
      "max": [
        54504
      ],
      "min": [
        0
      ],
      "type": "SCALAR"
    },
    {
      "bufferView": 2,
      "byteOffset": 1308120,
      "componentType": 5126,
      "count": 6226,
      "max": [
        1.1223976612091064,
        1.1223976612091064,
        0.343406081199646
      ],
      "min": [
        -1.1223976612091064,
        -1.1223975419998169,
        -0.34340599179267883
      ],
      "type": "VEC3"
    },
    {
      "bufferView": 2,
      "byteOffset": 1382832,
      "componentType": 5126,
      "count": 6226,
      "max": [
        1,
        1,
        0.99891382455825806
      ],
      "min": [
        -1,
        -1,
        -0.99833124876022339
      ],
      "type": "VEC3"
    },
    {
      "bufferView": 3,
      "componentType": 5126,
      "count": 6226,
      "max": [
        0.73865759372711182,
        0.73978614807128906,
        1,
        1
      ],
      "min": [
        -0.73908555507659912,
        -0.73937594890594482,
        -1,
        1
      ],
      "type": "VEC4"
    },
    {
      "bufferView": 1,
      "byteOffset": 436040,
      "componentType": 5126,
      "count": 6226,
      "max": [
        1,
        1
      ],
      "min": [
        0,
        0
      ],
      "type": "VEC2"
    },
    {
      "bufferView": 0,
      "byteOffset": 981312,
      "componentType": 5125,
      "count": 34560,
      "max": [
        6225
      ],
      "min": [
        0
      ],
      "type": "SCALAR"
    }
  ],
  "asset": {
    "extras": {
      "author": "Don42 (https://sketchfab.com/Don42)",
      "license": "CC-BY-NC-SA-4.0 (http://creativecommons.org/licenses/by-nc-sa/4.0/)",
      "source": "https://sketchfab.com/models/e63a62533f514c808b4f0770241a31e7",
      "title": "LotR~The one Ring~full 3D [FREE]"
    },
    "generator": "Sketchfab-3.31.2",
    "version": "2.0"
  },
  "bufferViews": [
    {
      "buffer": 0,
      "byteLength": 1119552,
      "byteOffset": 0,
      "name": "floatBufferViews",
      "target": 34963
    },
    {
      "buffer": 0,
      "byteLength": 485848,
      "byteOffset": 1119552,
      "byteStride": 8,
      "name": "floatBufferViews",
      "target": 34962
    },
    {
      "buffer": 0,
      "byteLength": 1457544,
      "byteOffset": 1605400,
      "byteStride": 12,
      "name": "floatBufferViews",
      "target": 34962
    },
    {
      "buffer": 0,
      "byteLength": 99616,
      "byteOffset": 3062944,
      "byteStride": 16,
      "name": "floatBufferViews",
      "target": 34962
    }
  ],
  "buffers": [
    {
      "byteLength": 3162560,
      "uri": "scene.bin"
    }
  ],
  "images": [
    {
      "uri": "textures/Material.001_metallicRoughness.png"
    },
    {
      "uri": "textures/Material.001_normal.png"
    },
    {
      "uri": "textures/SVGMat.003_metallicRoughness.png"
    }
  ],
  "materials": [
    {
      "doubleSided": false,
      "emissiveFactor": [
        1,
        0.46559472200000002,
        0
      ],
      "name": "SVGMat.003",
      "pbrMetallicRoughness": {
        "baseColorFactor": [
          1,
          0,
          0,
          1
        ],
        "metallicFactor": 0.20000000000000001,
        "metallicRoughnessTexture": {
          "index": 2,
          "texCoord": 0
        },
        "roughnessFactor": 1
      }
    },
    {
      "doubleSided": false,
      "name": "Material.001",
      "normalTexture": {
        "index": 1,
        "scale": 0.29999999999999999,
        "texCoord": 0
      },
      "pbrMetallicRoughness": {
        "baseColorFactor": [
          0.54697293690000004,
          0.28743244759999997,
          0.044596878600000001,
          1
        ],
        "metallicFactor": 1,
        "metallicRoughnessTexture": {
          "index": 0,
          "texCoord": 0
        },
        "roughnessFactor": 0.20000000000000001
      }
    }
  ],
  "meshes": [
    {
      "name": "Curve.007_SVGMat.003_0",
      "primitives": [
        {
          "attributes": {
            "NORMAL": 1,
            "POSITION": 0,
            "TEXCOORD_0": 2
          },
          "indices": 3,
          "material": 0,
          "mode": 4
        }
      ]
    },
    {
      "name": "BezierCircle.002_Material.001_0",
      "primitives": [
        {
          "attributes": {
            "NORMAL": 5,
            "POSITION": 4,
            "TANGENT": 6,
            "TEXCOORD_0": 7
          },
          "indices": 8,
          "material": 1,
          "mode": 4
        }
      ]
    }
  ],
  "nodes": [
    {
      "children": [
        1
      ],
      "name": "RootNode (gltf orientation matrix)",
      "rotation": [
        -0.70710678118654746,
        -0,
        -0,
        0.70710678118654757
      ]
    },
    {
      "children": [
        2
      ],
      "name": "RootNode (model correction matrix)"
    },
    {
      "children": [
        3
      ],
      "matrix": [
        1,
        0,
        0,
        0,
        0,
        0,
        1,
        0,
        0,
        -1,
        0,
        0,
        0,
        0,
        0,
        1
      ],
      "name": "d6aa9488aea742eb949879bffe9d0965.fbx"
    },
    {
      "children": [
        4,
        6
      ],
      "name": "RootNode"
    },
    {
      "children": [
        5
      ],
      "matrix": [
        1,
        0,
        0,
        0,
        0,
        -1.6292067939183141e-07,
        -0.99999999999998679,
        0,
        0,
        0.80000001192091841,
        -1.3033654545563099e-07,
        0,
        0,
        0.0080847470089793205,
        0,
        1
      ],
      "name": "Curve.007"
    },
    {
      "mesh": 0,
      "name": "Curve.007_SVGMat.003_0"
    },
    {
      "children": [
        7
      ],
      "matrix": [
        1,
        0,
        0,
        0,
        0,
        -1.6292067939183141e-07,
        -0.99999999999998679,
        0,
        0,
        0.80000001192091841,
        -1.3033654545563099e-07,
        0,
        0,
        0.00089830509386956692,
        0,
        1
      ],
      "name": "BezierCircle.002"
    },
    {
      "mesh": 1,
      "name": "BezierCircle.002_Material.001_0"
    }
  ],
  "samplers": [
    {
      "magFilter": 9729,
      "minFilter": 9987,
      "wrapS": 10497,
      "wrapT": 10497
    }
  ],
  "scene": 0,
  "scenes": [
    {
      "name": "OSG_Scene",
      "nodes": [
        0
      ]
    }
  ],
  "textures": [
    {
      "sampler": 0,
      "source": 0
    },
    {
      "sampler": 0,
      "source": 1
    },
    {
      "sampler": 0,
      "source": 2
    }
  ]
}

